<svg width="12" height="12" viewBox="0 0 12 12" fill="none" xmlns="http://www.w3.org/2000/svg">
<path fill-rule="evenodd" clip-rule="evenodd" d="M6.35871 1.8754C6.15961 1.66533 5.84039 1.66533 5.64129 1.8754C5.35547 2.17698 5.02969 2.5539 4.77771 2.93561C4.51642 3.33143 4.375 3.67292 4.375 3.91667C4.375 4.87473 5.11682 5.625 6 5.625C6.88318 5.625 7.625 4.87473 7.625 3.91667C7.625 3.67292 7.48358 3.33143 7.22229 2.93561C6.97031 2.5539 6.64453 2.17698 6.35871 1.8754ZM5.09694 1.35948C5.59183 0.837306 6.40817 0.837306 6.90306 1.35948C7.20339 1.67636 7.56217 2.08911 7.84821 2.52242C8.12493 2.94162 8.375 3.44051 8.375 3.91667C8.375 5.2598 7.32596 6.375 6 6.375C4.67404 6.375 3.625 5.2598 3.625 3.91667C3.625 3.44051 3.87507 2.94162 4.15179 2.52242C4.43783 2.08911 4.79661 1.67636 5.09694 1.35948ZM3.35871 6.8754C3.15961 6.66533 2.84039 6.66533 2.64129 6.8754C2.35547 7.17698 2.02969 7.5539 1.77771 7.93561C1.51642 8.33143 1.375 8.67292 1.375 8.91667C1.375 9.87473 2.11682 10.625 3 10.625C3.88318 10.625 4.625 9.87473 4.625 8.91667C4.625 8.67292 4.48358 8.33143 4.22229 7.93561C3.97031 7.5539 3.64453 7.17698 3.35871 6.8754ZM2.09694 6.35948C2.59183 5.83731 3.40817 5.83731 3.90306 6.35948C4.20339 6.67636 4.56217 7.08911 4.84821 7.52242C5.12493 7.94162 5.375 8.44051 5.375 8.91667C5.375 10.2598 4.32596 11.375 3 11.375C1.67404 11.375 0.625 10.2598 0.625 8.91667C0.625 8.44051 0.875067 7.94162 1.15179 7.52242C1.43783 7.08911 1.79661 6.67636 2.09694 6.35948ZM9.35871 6.8754C9.15961 6.66533 8.84039 6.66533 8.64129 6.8754C8.35547 7.17698 8.02969 7.5539 7.77771 7.93561C7.51642 8.33143 7.375 8.67292 7.375 8.91667C7.375 9.87473 8.11682 10.625 9 10.625C9.88318 10.625 10.625 9.87473 10.625 8.91667C10.625 8.67292 10.4836 8.33143 10.2223 7.93561C9.97031 7.5539 9.64453 7.17698 9.35871 6.8754ZM8.09694 6.35948C8.59183 5.83731 9.40817 5.83731 9.90306 6.35948C10.2034 6.67636 10.5622 7.08911 10.8482 7.52242C11.1249 7.94162 11.375 8.44051 11.375 8.91667C11.375 10.2598 10.326 11.375 9 11.375C7.67404 11.375 6.625 10.2598 6.625 8.91667C6.625 8.44051 6.87507 7.94162 7.15179 7.52242C7.43783 7.08911 7.79661 6.67636 8.09694 6.35948Z" fill="#1F2937"/>
</svg>
