<svg width="12" height="12" viewBox="0 0 12 12" fill="none" xmlns="http://www.w3.org/2000/svg">
<path fill-rule="evenodd" clip-rule="evenodd" d="M5.7619 0.625C2.92487 0.625 0.625 2.92487 0.625 5.7619C0.625 6.10051 0.899492 6.375 1.2381 6.375H5.625V10C5.625 10.3452 5.34518 10.625 5 10.625C4.65482 10.625 4.375 10.3452 4.375 10V9.5C4.375 9.29289 4.20711 9.125 4 9.125C3.79289 9.125 3.625 9.29289 3.625 9.5V10C3.625 10.7594 4.24061 11.375 5 11.375C5.75939 11.375 6.375 10.7594 6.375 10V6.375H10.7619C11.1005 6.375 11.375 6.10051 11.375 5.7619C11.375 2.92487 9.07513 0.625 6.2381 0.625H5.7619ZM4.42193 1.58342C2.69587 2.13649 1.4352 3.7294 1.3771 5.625H3.20772C3.29573 4.90386 3.47074 3.82713 3.80307 2.86878C3.96252 2.40898 4.16417 1.95837 4.42193 1.58342ZM3.96355 5.625C4.05157 4.93407 4.21671 3.96509 4.51168 3.1145C4.69229 2.59367 4.9127 2.14395 5.17394 1.83086C5.43086 1.52294 5.70132 1.375 6 1.375C6.29869 1.375 6.56914 1.52294 6.82607 1.83086C7.08731 2.14395 7.30772 2.59367 7.48833 3.1145C7.78329 3.96509 7.94844 4.93407 8.03646 5.625H3.96355ZM8.79229 5.625C8.70428 4.90386 8.52927 3.82713 8.19693 2.86878C8.03749 2.40898 7.83584 1.95837 7.57808 1.58342C9.30413 2.13649 10.5648 3.72941 10.6229 5.625H8.79229Z" fill="#1F2937"/>
</svg>
