<svg width="12" height="10" viewBox="0 0 12 10" fill="none" xmlns="http://www.w3.org/2000/svg">
<path fill-rule="evenodd" clip-rule="evenodd" d="M3.125 1.75C3.125 0.852538 3.85254 0.125 4.75 0.125C5.64746 0.125 6.375 0.852537 6.375 1.75C6.375 2.64746 5.64746 3.375 4.75 3.375H1.5C1.29289 3.375 1.125 3.20711 1.125 3C1.125 2.79289 1.29289 2.625 1.5 2.625H4.75C5.23325 2.625 5.625 2.23325 5.625 1.75C5.625 1.26675 5.23325 0.875 4.75 0.875C4.26675 0.875 3.875 1.26675 3.875 1.75V1.92857C3.875 2.13568 3.70711 2.30357 3.5 2.30357C3.29289 2.30357 3.125 2.13568 3.125 1.92857V1.75ZM7.125 2.75C7.125 1.5764 8.0764 0.625 9.25 0.625C10.4236 0.625 11.375 1.5764 11.375 2.75C11.375 3.9236 10.4236 4.875 9.25 4.875H1C0.792893 4.875 0.625 4.70711 0.625 4.5C0.625 4.29289 0.792893 4.125 1 4.125H9.25C10.0094 4.125 10.625 3.50939 10.625 2.75C10.625 1.99061 10.0094 1.375 9.25 1.375C8.49061 1.375 7.875 1.99061 7.875 2.75V3C7.875 3.20711 7.70711 3.375 7.5 3.375C7.29289 3.375 7.125 3.20711 7.125 3V2.75ZM1.625 6C1.625 5.79289 1.79289 5.625 2 5.625H9.25C10.4236 5.625 11.375 6.5764 11.375 7.75C11.375 8.9236 10.4236 9.875 9.25 9.875C8.0764 9.875 7.125 8.9236 7.125 7.75V7.5C7.125 7.29289 7.29289 7.125 7.5 7.125C7.70711 7.125 7.875 7.29289 7.875 7.5V7.75C7.875 8.50939 8.49061 9.125 9.25 9.125C10.0094 9.125 10.625 8.50939 10.625 7.75C10.625 6.99061 10.0094 6.375 9.25 6.375H2C1.79289 6.375 1.625 6.20711 1.625 6Z" fill="#1F2937"/>
</svg>
