<svg width="16" height="14" viewBox="0 0 16 14" fill="none" xmlns="http://www.w3.org/2000/svg">
<path d="M5.0797 11.6851C2.97364 10.0625 0.5 8.15663 0.5 4.85282C0.5 1.20562 4.62512 -1.3809 8 2.12547L9.5 3.62446C9.71971 3.84409 10.0759 3.84402 10.2955 3.62431C10.5151 3.4046 10.5151 3.04845 10.2954 2.82882L8.84635 1.38034C12.0263 -0.947686 15.5 1.50598 15.5 4.85282C15.5 8.15663 13.0264 10.0625 10.9203 11.6851C10.7014 11.8538 10.4865 12.0194 10.2787 12.1832C9.5 12.797 8.75 13.375 8 13.375C7.25 13.375 6.5 12.797 5.7213 12.1832C5.51353 12.0194 5.2986 11.8538 5.0797 11.6851Z" fill="#EF4444"/>
</svg>
