<svg width="18" height="15" viewBox="0 0 18 15" fill="none" xmlns="http://www.w3.org/2000/svg">
<path fill-rule="evenodd" clip-rule="evenodd" d="M4.21827 2.31814C2.97403 2.88689 2.0625 4.23967 2.0625 5.85282C2.0625 7.50087 2.73691 8.77117 3.70371 9.85983C4.50054 10.7571 5.46513 11.5007 6.40584 12.226C6.62928 12.3982 6.85136 12.5694 7.06953 12.7414C7.46406 13.0524 7.81599 13.3254 8.15521 13.5236C8.49461 13.7219 8.7678 13.8125 9 13.8125C9.2322 13.8125 9.50539 13.7219 9.84479 13.5236C10.184 13.3254 10.5359 13.0524 10.9305 12.7414C11.1486 12.5694 11.3707 12.3982 11.5942 12.226C12.5349 11.5007 13.4995 10.7571 14.2963 9.85983C15.2631 8.77117 15.9375 7.50087 15.9375 5.85282C15.9375 4.23967 15.026 2.88689 13.7817 2.31814C12.6767 1.81305 11.2246 1.89195 9.80436 3.1342L10.8977 4.22711C11.1174 4.44674 11.1174 4.8029 10.8978 5.02261C10.6782 5.24232 10.322 5.24238 10.1023 5.02275L8.60232 3.52329L8.59473 3.51555C7.05125 1.91193 5.42705 1.76561 4.21827 2.31814ZM9 2.34411C7.26596 0.792679 5.32422 0.57565 3.75057 1.29497C2.08853 2.05469 0.9375 3.81877 0.9375 5.85282C0.9375 7.85197 1.77037 9.37704 2.86254 10.6069C3.73715 11.5917 4.80767 12.416 5.75312 13.1439C5.96744 13.309 6.17533 13.469 6.37306 13.6249C6.75724 13.9278 7.16966 14.2507 7.58762 14.4949C8.00539 14.7391 8.4822 14.9375 9 14.9375C9.5178 14.9375 9.99461 14.7391 10.4124 14.4949C10.8303 14.2507 11.2428 13.9278 11.6269 13.6249C11.8247 13.469 12.0326 13.309 12.2469 13.1439C13.1923 12.416 14.2628 11.5917 15.1375 10.6069C16.2296 9.37704 17.0625 7.85197 17.0625 5.85282C17.0625 3.81877 15.9115 2.05469 14.2494 1.29497C12.6758 0.57565 10.734 0.792679 9 2.34411Z" fill="#111827"/>
</svg>
