<svg width="30" height="30" viewBox="0 0 30 30" fill="none" xmlns="http://www.w3.org/2000/svg">
<rect width="30" height="30" rx="15" fill="#FBBF24"/>
<path fill-rule="evenodd" clip-rule="evenodd" d="M22.3786 14.3447L22.2067 16.1712C21.9235 19.1806 21.7819 20.6854 20.8949 21.5927C20.008 22.5 18.6786 22.5 16.0199 22.5H13.9801C11.3214 22.5 9.99203 22.5 9.10507 21.5927C8.21811 20.6854 8.07649 19.1806 7.79325 16.1712L7.62136 14.3447C7.48635 12.9103 7.41885 12.193 7.66424 11.8966C7.79698 11.7362 7.97749 11.6379 8.17049 11.621C8.52726 11.5896 8.97531 12.0997 9.8714 13.1198C10.3348 13.6474 10.5665 13.9112 10.825 13.952C10.9683 13.9746 11.1142 13.9514 11.2464 13.8848C11.4851 13.7647 11.6443 13.4386 11.9626 12.7864L13.6402 9.34864C14.2416 8.11621 14.5424 7.5 15 7.5C15.4576 7.5 15.7584 8.11621 16.3598 9.34864L18.0374 12.7864C18.3557 13.4386 18.5149 13.7647 18.7536 13.8848C18.8858 13.9514 19.0317 13.9746 19.175 13.952C19.4335 13.9112 19.6652 13.6474 20.1286 13.1198C21.0247 12.0997 21.4727 11.5896 21.8295 11.621C22.0225 11.6379 22.203 11.7362 22.3358 11.8966C22.5812 12.193 22.5136 12.9103 22.3786 14.3447ZM15.7143 15.5243L15.6405 15.392C15.3555 14.8807 15.213 14.6251 15 14.6251C14.787 14.6251 14.6445 14.8807 14.3595 15.392L14.2857 15.5243C14.2047 15.6696 14.1642 15.7422 14.1011 15.7901C14.038 15.8381 13.9593 15.8558 13.8021 15.8914L13.6589 15.9238C13.1055 16.049 12.8288 16.1117 12.7629 16.3234C12.6971 16.5351 12.8857 16.7557 13.263 17.1969L13.3606 17.311C13.4678 17.4364 13.5215 17.4991 13.5456 17.5766C13.5697 17.6542 13.5616 17.7378 13.5454 17.9051L13.5306 18.0574C13.4736 18.646 13.4451 18.9403 13.6174 19.0712C13.7898 19.202 14.0489 19.0827 14.567 18.8441L14.7011 18.7824C14.8483 18.7146 14.922 18.6807 15 18.6807C15.078 18.6807 15.1517 18.7146 15.2989 18.7824L15.433 18.8441C15.9511 19.0827 16.2102 19.202 16.3826 19.0712C16.5549 18.9403 16.5264 18.646 16.4694 18.0574L16.4546 17.9051C16.4384 17.7378 16.4303 17.6542 16.4544 17.5766C16.4785 17.4991 16.5322 17.4364 16.6394 17.311L16.737 17.1969C17.1143 16.7557 17.3029 16.5351 17.2371 16.3234C17.1712 16.1117 16.8945 16.049 16.3411 15.9238L16.1979 15.8914C16.0407 15.8558 15.962 15.8381 15.8989 15.7901C15.8358 15.7422 15.7953 15.6696 15.7143 15.5243Z" fill="white"/>
</svg>
