<svg width="114" height="100" viewBox="0 0 114 100" fill="none" xmlns="http://www.w3.org/2000/svg">
<path d="M69.5265 0H45.3836C42.3742 0 39.488 1.20311 37.36 3.34465C35.232 5.4862 34.0365 8.39076 34.0365 11.4194V28.184C34.0365 31.2126 35.232 34.1171 37.36 36.2587C39.488 38.4002 42.3742 39.6033 45.3836 39.6033H51.1634V31.8284H45.3836C44.4232 31.8284 43.502 31.4445 42.8229 30.761C42.1437 30.0775 41.7622 29.1505 41.7622 28.184V11.4194C41.7622 10.4528 42.1437 9.5258 42.8229 8.84233C43.502 8.15886 44.4232 7.77489 45.3836 7.77489H69.5265C70.487 7.77489 71.4081 8.15886 72.0873 8.84233C72.7664 9.5258 73.1479 10.4528 73.1479 11.4194V28.184C73.1479 29.1505 72.7664 30.0775 72.0873 30.761C71.4081 31.4445 70.487 31.8284 69.5265 31.8284H63.1045L51.3928 39.6033V47.3782L63.1045 39.6033H69.5265C72.536 39.6033 75.4222 38.4002 77.5502 36.2587C79.6782 34.1171 80.8737 31.2126 80.8737 28.184V11.4194C80.8737 8.39076 79.6782 5.4862 77.5502 3.34465C75.4222 1.20311 72.536 0 69.5265 0Z" fill="#020617"/>
<ellipse cx="110.244" cy="61.7059" rx="3.75581" ry="3.7992" fill="#020617"/>
<path d="M13.8709 90.5601C13.2205 91.0464 12.4145 91.4183 11.453 91.6757C10.5198 91.9046 9.54419 92.019 8.52614 92.019C5.78307 92.019 3.67628 91.3182 2.20577 89.9165C0.735256 88.5148 0 86.4552 0 83.7376V63.4848H6.6173V69.1058H12.259V74.2549H6.6173V83.6518C6.6173 84.6244 6.85768 85.3825 7.33842 85.926C7.81916 86.4409 8.512 86.6983 9.41693 86.6983C10.435 86.6983 11.3399 86.4123 12.1317 85.8402L13.8709 90.5601Z" fill="#020617"/>
<path d="M23.9287 71.6374C24.7206 70.5218 25.781 69.6779 27.1101 69.1058C28.4675 68.5337 30.0229 68.2477 31.7762 68.2477V74.4265C31.0409 74.3693 30.546 74.3407 30.2915 74.3407C28.3968 74.3407 26.9122 74.8842 25.8376 75.9712C24.763 77.0296 24.2257 78.6315 24.2257 80.777V91.6757H17.6084V68.5909H23.9287V71.6374Z" fill="#020617"/>
<path d="M35.7108 68.5909H42.3281V91.6757H35.7108V68.5909Z" fill="#020617"/>
<path d="M61.9587 68.2477C64.0796 68.2477 66.0026 68.7483 67.7276 69.7495C69.4809 70.722 70.8524 72.1094 71.8422 73.9116C72.832 75.6851 73.3269 77.7591 73.3269 80.1333C73.3269 82.5076 72.832 84.5958 71.8422 86.398C70.8524 88.1715 69.4809 89.5589 67.7276 90.5601C66.0026 91.5327 64.0796 92.019 61.9587 92.019C59.0459 92.019 56.7553 91.0893 55.0869 89.2299V100H48.4696V68.5909H54.7899V71.2513C56.4301 69.2489 58.8197 68.2477 61.9587 68.2477ZM60.8134 86.5267C62.5101 86.5267 63.8958 85.9546 64.9704 84.8104C66.0733 83.6375 66.6247 82.0785 66.6247 80.1333C66.6247 78.1881 66.0733 76.6434 64.9704 75.4992C63.8958 74.3264 62.5101 73.74 60.8134 73.74C59.1166 73.74 57.7168 74.3264 56.6139 75.4992C55.5393 76.6434 55.002 78.1881 55.002 80.1333C55.002 82.0785 55.5393 83.6375 56.6139 84.8104C57.7168 85.9546 59.1166 86.5267 60.8134 86.5267Z" fill="#020617"/>
<path d="M100.917 68.5909V91.6757H94.5968V89.0154C92.9566 91.0178 90.5812 92.019 87.4705 92.019C85.3213 92.019 83.37 91.5327 81.6167 90.5601C79.8917 89.5875 78.5343 88.2001 77.5445 86.398C76.5548 84.5958 76.0599 82.5076 76.0599 80.1333C76.0599 77.7591 76.5548 75.6708 77.5445 73.8687C78.5343 72.0665 79.8917 70.6791 81.6167 69.7065C83.37 68.734 85.3213 68.2477 87.4705 68.2477C90.3832 68.2477 92.6597 69.1773 94.2999 71.0367V68.5909H100.917ZM88.6158 86.5267C90.2843 86.5267 91.6699 85.9546 92.7728 84.8104C93.8757 83.6375 94.4271 82.0785 94.4271 80.1333C94.4271 78.1881 93.8757 76.6434 92.7728 75.4992C91.6699 74.3264 90.2843 73.74 88.6158 73.74C86.919 73.74 85.5192 74.3264 84.4164 75.4992C83.3135 76.6434 82.762 78.1881 82.762 80.1333C82.762 82.0785 83.3135 83.6375 84.4164 84.8104C85.5192 85.9546 86.919 86.5267 88.6158 86.5267Z" fill="#020617"/>
<path d="M107.044 68.5909H113.661V91.6757H107.044V68.5909Z" fill="#020617"/>
<ellipse cx="39.1046" cy="61.7059" rx="3.75581" ry="3.7992" fill="#020617"/>
</svg>
