<svg width="24" height="24" viewBox="0 0 24 24" fill="none" xmlns="http://www.w3.org/2000/svg">
<path d="M8.20874 18.2468C5.47445 16.0833 2.26294 13.5422 2.26294 9.1371C2.26294 4.27416 7.61856 0.825464 12.0001 5.50063L13.9476 7.49928C14.2328 7.79212 14.6952 7.79203 14.9804 7.49908C15.2655 7.20614 15.2654 6.73127 14.9802 6.43843L13.099 4.50712C17.2275 1.40309 21.7374 4.67465 21.7374 9.1371C21.7374 13.5422 18.5258 16.0833 15.7915 18.2468C15.5074 18.4717 15.2283 18.6925 14.9586 18.9109C13.9476 19.7294 12.9739 20.5 12.0001 20.5C11.0264 20.5 10.0527 19.7294 9.04172 18.9109C8.77198 18.6925 8.49294 18.4717 8.20874 18.2468Z" fill="white"/>
</svg>
